<svg width="536" height="444" viewBox="0 0 536 444" fill="none" xmlns="http://www.w3.org/2000/svg">
<path fill-rule="evenodd" clip-rule="evenodd" d="M236.637 2.8227C279.618 -7.87348 322.072 14.3993 364.598 26.7815C423.906 44.0502 530.723 28.0443 534.917 89.6727C540.016 164.593 416.527 181.084 379.546 246.44C361.417 278.481 408.303 325.953 385.065 354.506C362.035 382.803 312.646 356.022 278.96 370.032C238.588 386.823 216.4 447.797 172.972 442.716C131.676 437.884 123.684 378.729 95.1165 348.521C64.7422 316.401 2.71097 304.032 0.0906539 259.903C-2.59802 214.623 55.1946 191.337 83.6875 156.043C104.143 130.705 120.956 104.736 143.962 81.6884C173.212 52.3871 196.46 12.8209 236.637 2.8227Z" fill="#F56527" fill-opacity="0.56"/>
</svg>
