<svg width="344" height="345" viewBox="0 0 344 345" fill="none" xmlns="http://www.w3.org/2000/svg">
<path fill-rule="evenodd" clip-rule="evenodd" d="M261.1 101.391C284.231 117.822 309.102 138.472 312.467 166.635C315.842 194.871 296.165 220.501 277.941 242.303C262.058 261.305 239.134 270.547 216.749 281.146C193.68 292.069 170.98 309.63 145.895 304.826C120.667 299.994 105.033 275.99 88.2439 256.535C71.8094 237.49 55.8598 218.103 49.9604 193.656C43.4135 166.526 35.0643 133.097 53.3838 112.075C71.9822 90.7332 107.061 102.281 134.751 96.3579C154.943 92.0391 172.837 81.2883 193.475 82.1104C217.478 83.0666 241.506 87.4727 261.1 101.391Z" fill="#F56527" fill-opacity="0.56"/>
</svg>
